<svg xmlns="http://www.w3.org/2000/svg" viewBox="0 0 960 600"><rect width="960" height="600" fill="#edf1e6"/><path d="M0 480Q260 365 480 490T960 430" fill="none" stroke="#cfaf65" stroke-width="62"/><path d="M0 500Q260 385 480 510T960 450" fill="none" stroke="#f5e4ac" stroke-width="38"/><g fill="#456c4e" opacity=".8"><path d="M0 420q80-110 170 0M770 450q75-150 170 0"/></g><g stroke="#173c30" stroke-width="9" stroke-linejoin="round"><path fill="#719766" d="M260 420c-50 0-73-42-35-68 42-29 95 0 75 49l-40 20Z"/><path fill="#b8c878" d="M238 367l35 42m-3-49l-31 49m-27-24h83"/><path fill="#719766" d="M298 405l42 5-28 24-35-6Z"/><path fill="#b58a62" d="M655 377q44-28 85 8l30 55-145 4 30-67Z"/><path fill="#b58a62" d="M670 380l-6-72 25 56m22 2 30-66-4 82"/><path fill="none" d="M647 446q18 25 34 0m43-45h1"/></g></svg>
