<svg xmlns="http://www.w3.org/2000/svg" viewBox="0 0 1280 720"><rect width="1280" height="720" fill="#f5e8c9"/><rect x="24" y="24" width="1232" height="672" rx="18" fill="none" stroke="#274c3a" stroke-width="18"/><path d="M30 590Q250 430 510 570T1250 500V700H30Z" fill="#8ba873"/><path d="M40 620Q300 490 620 610T1240 530" fill="none" stroke="#c7964d" stroke-width="58"/><g stroke="#263c32" stroke-width="15" stroke-linejoin="round"><path fill="#6d925c" d="M260 490c-95 8-128-85-38-125 78-35 154 34 110 108l-59 28Z"/><path fill="#d1b65d" d="M208 390l75 88m-15-105-76 112m-38-55h150"/><path fill="#6d925c" d="M322 465l82 20-52 43-69-19Z"/><path fill="#ae795a" d="M810 430q62-55 135 4l52 99-228 6 41-109Z"/><path fill="#ae795a" d="M830 433l-14-126 43 101m38-5 61-104-9 133"/><circle cx="910" cy="456" r="6" fill="#263c32"/></g><g fill="#527249"><circle cx="100" cy="270" r="40"/><circle cx="1160" cy="240" r="55"/></g></svg>
